<?xml version="1.0" encoding="UTF-8" standalone="no"?>
<svg
   xmlns:dc="http://purl.org/dc/elements/1.1/"
   xmlns:cc="http://creativecommons.org/ns#"
   xmlns:rdf="http://www.w3.org/1999/02/22-rdf-syntax-ns#"
   xmlns:svg="http://www.w3.org/2000/svg"
   xmlns="http://www.w3.org/2000/svg"
   viewBox="0 0 214.575 71.5625"
   height="71.5625"
   width="214.575"
   xml:space="preserve"
   version="1.1"
   id="svg2"><metadata
     id="metadata8"><rdf:RDF><cc:Work
         rdf:about=""><dc:format>image/svg+xml</dc:format><dc:type
           rdf:resource="http://purl.org/dc/dcmitype/StillImage" /></cc:Work></rdf:RDF></metadata><defs
     id="defs6"><clipPath
       id="clipPath18"
       clipPathUnits="userSpaceOnUse"><path
         id="path20"
         d="m 0,0 1716.62,0 0,572 L 0,572 0,0 Z" /></clipPath></defs><g
     transform="matrix(1.25,0,0,-1.25,0,71.5625)"
     id="g10"><g
       transform="scale(0.1,0.1)"
       id="g12"><g
         id="g14"><g
           clip-path="url(#clipPath18)"
           id="g16"><path
             id="path22"
             style="fill:#ee2242;fill-opacity:1;fill-rule:nonzero;stroke:none"
             d="m 545.266,286.215 c -0.032,11.328 9.031,20.484 20.222,20.512 -0.8,11.437 -2.258,22.711 -4.328,33.808 l -0.047,-0.027 c -10.808,-2.942 -21.914,3.574 -24.824,14.496 -2.891,10.937 3.547,22.16 14.316,25.117 l 0.098,0 c -3.699,10.785 -8.027,21.324 -12.898,31.496 l -0.063,-0.035 c -9.695,-5.664 -22.058,-2.32 -27.664,7.488 -5.605,9.817 -2.273,22.344 7.422,28.039 -6.289,9.418 -13.152,18.422 -20.508,26.996 -7.91,-7.976 -20.722,-7.976 -28.625,0 -7.918,7.985 -7.918,20.993 0,29.02 -8.496,7.41 -17.398,14.363 -26.707,20.742 l 0,-0.023 c -5.605,-9.778 -17.976,-13.176 -27.644,-7.492 -9.7,5.668 -13.032,18.187 -7.434,27.988 l 0.02,0.055 c -10.04,4.957 -20.43,9.312 -31.094,13.05 l 0,-0.054 c -2.91,-10.942 -14.043,-17.426 -24.817,-14.493 -10.796,2.907 -17.214,14.157 -14.343,25.098 l 0.019,0.039 c -10.898,2.121 -22.051,3.613 -33.379,4.445 0,-11.359 -9.082,-20.527 -20.222,-20.527 -11.211,0 -20.278,9.168 -20.278,20.527 -11.336,-0.832 -22.449,-2.324 -33.367,-4.445 l 0,-0.039 c 2.891,-10.918 -3.496,-22.191 -14.316,-25.098 -10.821,-2.933 -21.907,3.551 -24.805,14.493 l 0,0.078 c -10.703,-3.762 -21.094,-8.117 -31.133,-13.074 l 0.02,-0.032 c 5.593,-9.824 2.265,-22.343 -7.395,-28.011 -9.707,-5.684 -22.078,-2.286 -27.664,7.492 l -0.019,0.023 c -9.297,-6.379 -18.223,-13.332 -26.6996,-20.742 7.9296,-8.027 7.9106,-21.008 0.0195,-28.984 -7.9297,-8.012 -20.7422,-8.012 -28.6445,-0.036 l 0,0.036 c -7.3516,-8.61 -14.2071,-17.614 -20.5156,-27.032 l 0.0273,0 c 9.6797,-5.695 13,-18.199 7.4062,-28.019 -5.6171,-9.828 -17.9804,-13.172 -27.6601,-7.508 l -0.0469,0.035 C 22.793,401.445 18.5156,390.906 14.7852,380.121 l 0.0781,0 C 25.6641,377.184 32.0703,365.941 29.168,355.023 26.2891,344.082 15.1641,337.566 4.375,340.535 l -0.03125,0 C 2.25781,329.461 0.78125,318.191 0,306.727 c 11.1602,0 20.2148,-9.184 20.2148,-20.512 C 20.2422,274.922 11.1602,265.723 0,265.723 0.78125,254.258 2.25781,242.988 4.34375,231.941 l 0.03125,0 c 10.7891,2.922 21.9141,-3.562 24.793,-14.461 2.9023,-10.937 -3.5039,-22.207 -14.3047,-25.128 l -0.0781,0 c 3.6836,-10.809 8.0078,-21.336 12.9101,-31.512 l 0.0195,0.027 c 9.7071,5.664 22.0704,2.297 27.6875,-7.508 5.5938,-9.816 2.2735,-22.324 -7.4062,-27.988 l -0.0273,0 c 6.3085,-9.445 13.164,-18.457 20.5156,-27.0507 7.9023,8.0077 20.7148,8.0077 28.625,0 7.9106,-7.9883 7.9106,-20.9844 0,-28.9648 8.4766,-7.461 17.4026,-14.3946 26.6996,-20.7696 l 0,0.0274 c 5.605,9.8047 17.976,13.1445 27.683,7.5078 9.66,-5.6914 12.988,-18.2227 7.395,-28.0352 l -0.02,-0.0507 c 10.039,-4.9297 20.43,-9.2852 31.113,-13.0547 l 0.02,0.0781 c 2.898,10.918 13.984,17.4414 24.805,14.4726 10.781,-2.9101 17.187,-14.1328 14.316,-25.07026 L 229.082,4.43359 C 240.039,2.29297 251.152,0.800781 262.488,0 c 0,11.3281 9.067,20.4961 20.254,20.4961 11.164,0 20.246,-9.168 20.246,-20.4765688 L 302.988,0 c 11.328,0.800781 22.442,2.29297 33.36,4.43359 l 0,0.02735 c -2.871,10.93746 3.547,22.16016 14.316,25.07026 10.801,2.9688 21.914,-3.5546 24.816,-14.4726 l 0.028,-0.0781 c 10.664,3.7695 21.035,8.125 31.094,13.0547 l -0.02,0.0507 c -5.598,9.8125 -2.266,22.3438 7.402,28.0079 9.668,5.664 22.071,2.3242 27.676,-7.4805 l 0,-0.0274 c 9.309,6.375 18.211,13.3086 26.707,20.75 l 0,0.0196 c -7.918,7.9804 -7.918,20.9765 0,28.9648 7.903,8.0077 20.715,8.0077 28.625,0 7.356,8.5747 14.219,17.5777 20.508,27.0317 l 0,0.019 c -9.695,5.645 -13.027,18.172 -7.422,27.988 5.586,9.805 17.969,13.145 27.649,7.508 l 0.078,-0.047 c 4.871,10.196 9.199,20.692 12.898,31.504 l -0.098,0.028 c -10.769,2.921 -17.207,14.16 -14.316,25.07 2.891,10.957 14.016,17.441 24.824,14.519 l 0.047,0 c 2.07,11.047 3.528,22.317 4.328,33.782 -11.191,0 -20.254,9.199 -20.222,20.492" /><path
             id="path24"
             style="fill:#ffffff;fill-opacity:1;fill-rule:nonzero;stroke:none"
             d="m 346.145,240.059 c -10.93,0 -19.805,8.984 -19.805,20.058 0,11.094 8.875,20.047 19.805,20.047 10.925,0 19.824,-8.953 19.824,-20.047 0,-11.074 -8.899,-20.058 -19.824,-20.058 z m 27.273,212.191 -55.059,0 -43.789,-331.996 47.735,0 10.273,80.684 27.234,0 10.286,-80.684 47.422,0 -44.102,331.996" /><path
             id="path26"
             style="fill:#ffffff;fill-opacity:1;fill-rule:nonzero;stroke:none"
             d="m 203.691,454.262 c -19.492,0 -34.355,-5.582 -44.648,-16.782 -10.273,-11.203 -15.422,-26.074 -15.422,-44.664 l 0,-215.492 c 0,-19.687 4.758,-34.472 14.27,-44.297 9.531,-9.863 24.648,-14.816 45.449,-14.816 18.586,0 32.949,4.992 43.125,14.953 10.176,9.981 15.254,24.57 15.254,43.848 l 0,100.371 -60.391,0 0,-39.922 15.266,0 0,-62.832 c 0,-3.789 -1.391,-6.887 -4.211,-9.231 -2.813,-2.343 -6.36,-3.523 -10.684,-3.523 -5.605,0 -9.199,1.445 -10.703,4.375 -1.492,2.891 -2.266,5.918 -2.266,9.062 l 0,217.504 c 0,1.575 0.215,3.399 0.665,5.532 0.417,2.14 1.179,4.093 2.277,5.898 1.07,1.774 2.547,3.293 4.375,4.531 1.836,1.231 4.265,1.825 7.293,1.825 l 0,-0.051 c 0.234,0.023 0.422,0.051 0.644,0.051 3.047,0 5.496,-0.594 7.325,-1.825 1.836,-1.238 3.3,-2.757 4.394,-4.531 1.074,-1.805 1.817,-3.758 2.266,-5.898 0.422,-2.133 0.636,-3.957 0.636,-5.532 l 0,-50.152 45.125,0 0,50.152 c 0,18.59 -5.136,33.461 -15.418,44.664 -10.316,11.2 -25.175,16.782 -44.621,16.782" /><path
             id="path28"
             style="fill:#100f0d;fill-opacity:1;fill-rule:nonzero;stroke:none"
             d="m 712.449,540.973 c 10.305,0 19.231,-1.477 26.789,-4.434 7.559,-2.961 13.809,-7.07 18.742,-12.332 4.93,-5.258 8.426,-11.504 10.516,-18.734 2.078,-7.231 2.793,-15.008 2.129,-23.34 l -43.379,-7.559 c -0.215,6.789 -1.66,12.434 -4.355,16.926 -2.676,4.492 -6.27,6.742 -10.762,6.742 -2.996,0 -5.41,-0.605 -7.234,-1.808 -1.821,-1.204 -3.274,-2.688 -4.348,-4.442 -1.074,-1.754 -1.817,-3.668 -2.246,-5.746 -0.43,-2.086 -0.645,-3.898 -0.645,-5.426 l 0,-116.691 c 0,-3.074 0.742,-6.035 2.246,-8.875 1.504,-2.852 5.02,-4.274 10.594,-4.274 4.289,0 7.816,1.153 10.598,3.45 2.785,2.304 4.179,5.312 4.179,9.047 l 0,35.164 -15.117,0 0,39.117 59.824,0 0,-71.988 c 0,-18.848 -5.046,-33.145 -15.136,-42.891 -10.071,-9.75 -24.317,-14.633 -42.727,-14.633 -20.594,0 -35.601,4.82 -45.027,14.469 -9.422,9.644 -14.141,24.101 -14.141,43.387 l 0,114.718 c 0,18.188 5.098,32.754 15.293,43.719 10.196,10.953 24.922,16.434 44.207,16.434" /><path
             id="path30"
             style="fill:#100f0d;fill-opacity:1;fill-rule:nonzero;stroke:none"
             d="m 789.031,310.223 0,228.777 104.864,0 0,-42.734 -60.157,0 0,-48.645 52.59,0 0,-42.73 -52.59,0 0,-51.938 60.157,0 0,-42.73 -104.864,0" /><path
             id="path32"
             style="fill:#100f0d;fill-opacity:1;fill-rule:nonzero;stroke:none"
             d="m 992.5,430.855 0,108.145 43.71,0 0,-228.777 -37.968,0 -26.836,66.726 -15.722,43.391 -1.641,0 0,-110.117 -44.707,0 0,228.777 39.109,0 26.965,-66.398 15.449,-41.747 1.641,0" /><path
             id="path34"
             style="fill:#100f0d;fill-opacity:1;fill-rule:nonzero;stroke:none"
             d="m 1060.21,310.223 0,228.777 104.85,0 0,-42.734 -60.15,0 0,-48.645 52.59,0 0,-42.73 -52.59,0 0,-51.938 60.15,0 0,-42.73 -104.85,0" /><path
             id="path36"
             style="fill:#100f0d;fill-opacity:1;fill-rule:nonzero;stroke:none"
             d="m 1226.2,496.266 0,-53.907 6.91,0 c 3.28,0 6.34,0.383 9.19,1.153 2.86,0.761 5.43,2.246 7.74,4.437 2.29,2.188 4.1,5.094 5.41,8.711 1.32,3.613 1.97,8.379 1.97,14.297 0,8.766 -2.13,15.172 -6.4,19.227 -4.27,4.054 -9.81,6.082 -16.61,6.082 l -8.21,0 z m 9.53,42.734 c 9.43,0 18.08,-1.148 25.97,-3.453 7.89,-2.301 14.69,-6.133 20.39,-11.504 5.68,-5.371 10.12,-12.383 13.3,-21.035 3.18,-8.664 4.77,-19.231 4.77,-31.719 0,-15.562 -2.08,-28.266 -6.25,-38.129 -4.16,-9.859 -10.51,-17.754 -19.06,-23.672 l 32.86,-99.265 -45.68,0 -26.95,89.074 -8.88,0 0,-89.074 -44.7,0 0,228.777 54.23,0" /><path
             id="path38"
             style="fill:#100f0d;fill-opacity:1;fill-rule:nonzero;stroke:none"
             d="m 1371.15,433.484 -4.59,-36.484 20.71,0 -4.28,36.484 -4.92,46.348 -1.98,0 -4.94,-46.348 z m 22.69,-78.558 -33.53,0 -6.89,-44.703 -47.35,0 43.39,228.777 54.56,0 43.73,-228.777 -47.01,0 -6.9,44.703" /><path
             id="path40"
             style="fill:#100f0d;fill-opacity:1;fill-rule:nonzero;stroke:none"
             d="m 1459.26,310.223 0,228.777 44.7,0 0,-186.047 60.15,0 0,-42.73 -104.85,0" /><path
             id="path42"
             style="fill:#100f0d;fill-opacity:1;fill-rule:nonzero;stroke:none"
             d="m 703.906,159.57 -4.609,-36.484 20.715,0 -4.27,36.484 -4.941,46.348 -1.961,0 -4.934,-46.348 z m 22.676,-78.5544 -33.523,0 -6.907,-44.707 -47.324,0 43.379,228.7694 54.57,0 43.711,-228.7694 -47.004,0 -6.902,44.707" /><path
             id="path44"
             style="fill:#100f0d;fill-opacity:1;fill-rule:nonzero;stroke:none"
             d="m 905.723,103.691 c 0,-10.5269 -0.926,-20.0582 -2.793,-28.5933 -1.856,-8.5547 -5.039,-15.8399 -9.532,-21.8555 -4.492,-6.0352 -10.566,-10.6836 -18.242,-13.9844 -7.676,-3.2812 -17.312,-4.9219 -28.926,-4.9219 -10.507,0 -19.558,1.543 -27.109,4.6289 -7.566,3.0938 -13.711,7.3438 -18.418,12.754 -4.707,5.4101 -8.164,11.6992 -10.351,18.8671 -2.188,7.168 -3.282,14.8047 -3.282,22.9102 l 45.02,8.5549 c 0.437,-8.3401 1.687,-14.5822 3.75,-18.7424 2.051,-4.168 5.898,-6.25 11.543,-6.25 3.242,0 5.781,0.7734 7.637,2.2969 1.835,1.5312 3.242,3.5039 4.218,5.9062 0.977,2.4141 1.621,5.2539 1.953,8.5274 0.332,3.2812 0.489,6.5699 0.489,9.8519 0,4.589 -0.332,8.418 -0.989,11.496 -0.652,3.047 -1.804,5.683 -3.445,7.859 -1.641,2.199 -3.894,4.094 -6.738,5.742 -2.852,1.653 -6.36,3.34 -10.52,5.09 -11.179,4.59 -20.164,9.356 -26.961,14.277 -6.797,4.922 -11.992,10.176 -15.605,15.75 -3.621,5.579 -5.977,11.485 -7.07,17.715 -1.094,6.242 -1.641,13.078 -1.641,20.52 0,9.394 1.094,18.086 3.281,26.074 2.188,7.988 5.645,14.824 10.352,20.508 4.718,5.683 10.859,10.176 18.418,13.457 7.558,3.281 16.699,4.922 27.441,4.922 11.387,0 20.82,-1.797 28.274,-5.422 7.449,-3.613 13.308,-8.211 17.585,-13.809 4.266,-5.586 7.286,-11.777 9.036,-18.562 1.746,-6.797 2.625,-13.379 2.625,-19.727 L 861.68,200 c 0,3.281 -0.157,6.348 -0.489,9.199 -0.332,2.852 -1.035,5.43 -2.109,7.735 -1.086,2.293 -2.551,4.101 -4.394,5.41 -1.836,1.328 -4.376,1.972 -7.626,1.972 -3.039,0 -5.421,-0.703 -7.152,-2.128 -1.746,-1.426 -3.094,-3.184 -4.058,-5.254 -0.989,-2.09 -1.633,-4.454 -1.957,-7.071 -0.321,-2.636 -0.477,-5.156 -0.477,-7.558 0,-3.078 0.215,-5.813 0.644,-8.223 0.442,-2.414 1.524,-4.707 3.274,-6.906 1.746,-2.188 4.305,-4.324 7.684,-6.406 3.378,-2.079 8.125,-4.325 14.238,-6.747 10.469,-4.16 18.769,-8.535 24.875,-13.144 6.101,-4.59 10.738,-9.649 13.902,-15.117 3.164,-5.481 5.235,-11.66 6.223,-18.574 0.976,-6.895 1.465,-14.739 1.465,-23.497" /><path
             id="path46"
             style="fill:#100f0d;fill-opacity:1;fill-rule:nonzero;stroke:none"
             d="m 1037.85,103.691 c 0,-10.5269 -0.93,-20.0582 -2.79,-28.5933 -1.86,-8.5547 -5.04,-15.8399 -9.53,-21.8555 -4.49,-6.0352 -10.57,-10.6836 -18.24,-13.9844 -7.681,-3.2812 -17.31,-4.9219 -28.931,-4.9219 -10.507,0 -19.55,1.543 -27.109,4.6289 -7.559,3.0938 -13.711,7.3438 -18.406,12.754 -4.719,5.4101 -8.176,11.6992 -10.364,18.8671 -2.187,7.168 -3.281,14.8047 -3.281,22.9102 l 45.031,8.5549 c 0.426,-8.3401 1.676,-14.5822 3.739,-18.7424 2.051,-4.168 5.898,-6.25 11.543,-6.25 3.242,0 5.781,0.7734 7.636,2.2969 1.836,1.5312 3.243,3.5039 4.219,5.9062 0.977,2.4141 1.621,5.2539 1.953,8.5274 0.332,3.2812 0.489,6.5699 0.489,9.8519 0,4.589 -0.325,8.418 -0.977,11.496 -0.664,3.047 -1.816,5.683 -3.457,7.859 -1.641,2.199 -3.895,4.094 -6.738,5.742 -2.852,1.653 -6.36,3.34 -10.52,5.09 -11.179,4.59 -20.164,9.356 -26.961,14.277 -6.789,4.922 -11.992,10.176 -15.605,15.75 -3.613,5.579 -5.977,11.485 -7.071,17.715 -1.093,6.242 -1.64,13.078 -1.64,20.52 0,9.394 1.094,18.086 3.281,26.074 2.188,7.988 5.645,14.824 10.352,20.508 4.715,5.683 10.859,10.176 18.418,13.457 7.558,3.281 16.699,4.922 27.441,4.922 11.398,0 20.818,-1.797 28.268,-5.422 7.45,-3.613 13.31,-8.211 17.59,-13.809 4.27,-5.586 7.29,-11.777 9.03,-18.562 1.75,-6.797 2.63,-13.379 2.63,-19.727 L 993.809,200 c 0,3.281 -0.157,6.348 -0.489,9.199 -0.332,2.852 -1.035,5.43 -2.109,7.735 -1.074,2.293 -2.539,4.101 -4.395,5.41 -1.836,1.328 -4.375,1.972 -7.628,1.972 -3.036,0 -5.418,-0.703 -7.145,-2.128 -1.738,-1.426 -3.098,-3.184 -4.063,-5.254 -0.976,-2.09 -1.632,-4.454 -1.945,-7.071 -0.332,-2.636 -0.488,-5.156 -0.488,-7.558 0,-3.078 0.215,-5.813 0.644,-8.223 0.45,-2.414 1.524,-4.707 3.282,-6.906 1.738,-2.188 4.297,-4.324 7.675,-6.406 3.379,-2.079 8.133,-4.325 14.239,-6.747 10.473,-4.16 18.773,-8.535 24.873,-13.144 6.1,-4.59 10.74,-9.649 13.91,-15.117 3.16,-5.481 5.23,-11.66 6.22,-18.574 0.97,-6.895 1.46,-14.739 1.46,-23.497" /><path
             id="path48"
             style="fill:#100f0d;fill-opacity:1;fill-rule:nonzero;stroke:none"
             d="m 1056.26,36.3086 0,228.7694 104.86,0 0,-42.734 -60.15,0 0,-48.633 52.58,0 0,-42.734 -52.58,0 0,-51.934 60.15,0 0,-42.7344 -104.86,0" /><path
             id="path50"
             style="fill:#100f0d;fill-opacity:1;fill-rule:nonzero;stroke:none"
             d="m 1241.88,81.0156 -9.5,29.2464 -10.46,33.859 -1.65,0 0,-107.8124 -44.68,0 0,228.7694 41.73,0 22.68,-61.133 15.45,-45.371 1.97,0 15.78,46.356 22.35,60.148 41.75,0 0,-228.7694 -44.7,0 0,106.8244 -1.32,0 -10.79,-35.496 -8.83,-26.6214 -29.78,0" /><path
             id="path52"
             style="fill:#100f0d;fill-opacity:1;fill-rule:nonzero;stroke:none"
             d="m 1432.62,110.449 c 0,9.258 -1.59,15.75 -4.77,19.492 -3.18,3.758 -7.95,5.625 -14.3,5.625 l -8.22,0 0,-56.523 7.89,0 c 4.16,0 7.51,0.8203 10.03,2.4687 2.51,1.6602 4.48,3.918 5.92,6.7774 1.42,2.8632 2.35,6.164 2.79,9.9218 0.44,3.7421 0.66,7.8241 0.66,12.2381 z M 1430.64,200 c 0,8.984 -1.64,14.961 -4.92,17.91 -3.29,2.957 -8.55,4.434 -15.78,4.434 l -4.61,0 0,-45.352 5.59,0 c 13.16,0 19.72,7.664 19.72,23.008 z m 17.76,-44.043 c 5.25,-1.758 9.59,-4.277 12.99,-7.57 3.4,-3.282 6.13,-7.059 8.2,-11.336 2.09,-4.278 3.56,-8.926 4.45,-13.965 0.86,-5.039 1.31,-10.195 1.31,-15.449 0,-24.5511 -5.37,-42.5784 -16.11,-54.0823 -10.73,-11.5039 -26.74,-17.2461 -47.99,-17.2461 l -50.62,0 0,228.7694 51.62,0 c 20.37,0 35.65,-5.371 45.84,-16.105 10.19,-10.743 15.29,-26.629 15.29,-47.664 0,-4.598 -0.49,-9.153 -1.49,-13.633 -0.97,-4.504 -2.46,-8.711 -4.43,-12.656 -1.97,-3.946 -4.55,-7.461 -7.72,-10.528 -3.18,-3.066 -6.97,-5.371 -11.34,-6.894 l 0,-1.641" /><path
             id="path54"
             style="fill:#100f0d;fill-opacity:1;fill-rule:nonzero;stroke:none"
             d="m 1499.02,36.3086 0,228.7694 44.7,0 0,-186.035 60.16,0 0,-42.7344 -104.86,0" /><path
             id="path56"
             style="fill:#100f0d;fill-opacity:1;fill-rule:nonzero;stroke:none"
             d="m 1651.37,181.59 8.14,38.457 9.8,45.031 47.31,0 -44.37,-135.742 0,-93.0274 -44.71,0 0,93.0274 -44.71,135.742 47.64,0 11.1,-45.683 8.16,-37.805 1.64,0" /></g></g></g></g></svg>