<?xml version="1.0" encoding="UTF-8" standalone="no"?>
<!-- Created with Inkscape (http://www.inkscape.org/) -->

<svg
   xmlns:dc="http://purl.org/dc/elements/1.1/"
   xmlns:cc="http://creativecommons.org/ns#"
   xmlns:rdf="http://www.w3.org/1999/02/22-rdf-syntax-ns#"
   xmlns:svg="http://www.w3.org/2000/svg"
   xmlns="http://www.w3.org/2000/svg"
   xmlns:inkscape="http://www.inkscape.org/namespaces/inkscape"
   version="1.1"
   width="410"
   height="143.75"
   id="svg2"
   xml:space="preserve"><metadata
     id="metadata8"><rdf:RDF><cc:Work
         rdf:about=""><dc:format>image/svg+xml</dc:format><dc:type
           rdf:resource="http://purl.org/dc/dcmitype/StillImage" /></cc:Work></rdf:RDF></metadata><defs
     id="defs6" /><g
     transform="matrix(1.25,0,0,-1.25,0,143.75)"
     id="g10"><g
       transform="scale(0.1,0.1)"
       id="g12"><path
         d="m 49.1992,87.6992 32.836,0 c 6.0664,0 6.664,-0.5976 6.664,-6.6992 l 0,-16.3984 c 0,-6.0664 -0.5976,-6.7032 -6.664,-6.7032 l -32.836,0 0,-23.2968 35.0664,0 c 6.0664,0 6.668,-0.6016 6.668,-6.668 l 0,-16.3984 c 0,-6.10161 -0.6016,-6.66801 -6.668,-6.66801 l -63.3984,0 c -6.1016,0 -6.6992,0.5664 -6.6992,6.66801 l 0,121.7308 c 0,6.101 0.5976,6.668 6.6992,6.668 l 63.3984,0 c 6.0664,0 6.668,-0.567 6.668,-6.668 l 0,-16.399 c 0,-6.066 -0.6016,-6.699 -6.668,-6.699 l -35.0664,0 0,-22.4688"
         inkscape:connector-curvature="0"
         id="path14"
         style="fill:#65007e;fill-opacity:1;fill-rule:nonzero;stroke:none" /><path
         d="m 375,34.6016 c 6.066,0 6.699,-0.6016 6.699,-6.668 l 0,-16.3984 c 0,-6.10161 -0.633,-6.66801 -6.699,-6.66801 l -63.801,0 c -6.066,0 -6.664,0.5664 -6.664,6.66801 l 0,121.7308 c 0,6.101 0.598,6.668 6.664,6.668 l 21.699,0 c 6.036,0 6.668,-0.567 6.668,-6.668 l 0,-98.6644 35.434,0"
         inkscape:connector-curvature="0"
         id="path16"
         style="fill:#65007e;fill-opacity:1;fill-rule:nonzero;stroke:none" /><path
         d="m 630.332,87.6992 32.801,0 c 6.066,0 6.699,-0.5976 6.699,-6.6992 l 0,-16.3984 c 0,-6.0664 -0.633,-6.7032 -6.699,-6.7032 l -32.801,0 0,-23.2968 35.035,0 c 6.067,0 6.668,-0.6016 6.668,-6.668 l 0,-16.3984 c 0,-6.10161 -0.601,-6.66801 -6.668,-6.66801 l -63.402,0 c -6.098,0 -6.664,0.5664 -6.664,6.66801 l 0,121.7308 c 0,6.101 0.566,6.668 6.664,6.668 l 63.402,0 c 6.067,0 6.668,-0.567 6.668,-6.668 l 0,-16.399 c 0,-6.066 -0.601,-6.699 -6.668,-6.699 l -35.035,0 0,-22.4688"
         inkscape:connector-curvature="0"
         id="path18"
         style="fill:#65007e;fill-opacity:1;fill-rule:nonzero;stroke:none" /><path
         d="m 988.934,106.133 c 0,-4.867 -1.235,-7.0978 -3.868,-6.8986 -0.8,0 -1.601,0.4336 -2.601,1.1996 -9.531,6.3 -14.598,8.132 -23.133,8.132 -22.066,0 -37.066,-15.1988 -37.066,-37.1012 0,-21.6328 15.234,-36.2304 37.699,-36.2304 9.101,0 16.601,2.6328 23.5,8.3008 0.801,0.5976 1.601,1.0312 2.402,1.0312 2.434,0 3.067,-1.6328 3.067,-6.8984 l 0,-24.336 c 0,-4.23044 -0.2,-4.832 -1.602,-5.832 C 986.699,7.06641 986.301,6.86719 985.301,6.66797 970.898,2 966.434,1.19922 957.934,1.19922 c -40.7,0 -72.301,30.80078 -72.301,70.46878 0,39.531 31.765,71.133 71.699,71.133 8.902,0 19.633,-2.035 28.535,-5.668 2.867,-1.031 3.067,-1.832 3.067,-6.735 l 0,-24.265"
         inkscape:connector-curvature="0"
         id="path20"
         style="fill:#65007e;fill-opacity:1;fill-rule:nonzero;stroke:none" /><path
         d="m 1266.13,11.5352 c 0,-6.10161 -0.63,-6.66801 -6.7,-6.66801 l -21.66,0 c -6.1,0 -6.67,0.5664 -6.67,6.66801 l 0,98.6328 -21.9,0 c -6.07,0 -6.7,0.633 -6.7,6.699 l 0,16.399 c 0,6.101 0.63,6.668 6.7,6.668 l 79.4,0 c 6.1,0 6.67,-0.567 6.67,-6.668 l 0,-16.399 c 0,-6.066 -0.57,-6.699 -6.67,-6.699 l -22.47,0 0,-98.6328"
         inkscape:connector-curvature="0"
         id="path22"
         style="fill:#65007e;fill-opacity:1;fill-rule:nonzero;stroke:none" /><path
         d="m 1550.4,79.3984 c 13.77,0 21.67,6.2696 21.67,16.8008 0,10.5348 -8.11,16.8008 -21.67,16.8008 l -6.47,0 0,-33.6016 6.47,0 z m 64,-65.832 c 2.23,-2.8672 2.43,-3.4336 2.64,-4.86718 0.19,-2.63281 -1.84,-3.83203 -6.91,-3.83203 l -27.96,0 c -4.67,0 -4.84,0.19922 -6.47,2.63281 -0.2,0.19922 -0.4,0.56641 -1,1.39844 l -30.77,47.80076 0,-45.164 c 0,-6.10161 -0.63,-6.66801 -6.7,-6.66801 l -21.66,0 c -6.11,0 -6.67,0.5664 -6.67,6.66801 l 0,121.7308 c 0,6.101 0.56,6.668 6.67,6.668 l 47.8,0 c 15.36,0 25.3,-3.633 33.2,-11.934 7.3,-7.699 11.53,-18.633 11.53,-29.7656 0,-20.2696 -10.3,-33.6328 -29.56,-38.1016 l 35.86,-46.5664"
         inkscape:connector-curvature="0"
         id="path24"
         style="fill:#65007e;fill-opacity:1;fill-rule:nonzero;stroke:none" /><path
         d="M 1852.3,72.1016 C 1852.3,51.0352 1869.33,34 1890.4,34 c 21.06,0 38.1,17.0352 38.1,38.1016 0,20.832 -17.04,37.8634 -38.1,37.8634 -21.07,0 -38.1,-17.0314 -38.1,-37.8634 z m 112.87,0 C 1965.17,31 1933.13,0 1890.4,0 c -42.73,0 -74.77,31 -74.77,72.1016 0,40.8984 32.04,71.8984 74.77,71.8984 42.73,0 74.77,-30.766 74.77,-71.8984"
         inkscape:connector-curvature="0"
         id="path26"
         style="fill:#65007e;fill-opacity:1;fill-rule:nonzero;stroke:none" /><path
         d="m 2278.4,133.266 c 0,6.101 0.6,6.668 6.7,6.668 l 21.67,0 c 6.06,0 6.66,-0.567 6.66,-6.668 l 0,-121.7308 c 0,-6.10161 -0.6,-6.66801 -6.66,-6.66801 l -23.7,0 c -5.07,0 -4.47,-0.23438 -7.5,3.63281 l -61.8,79 0,-75.9648 c 0,-6.10161 -0.6,-6.66801 -6.67,-6.66801 l -21.7,0 c -6.03,0 -6.67,0.5664 -6.67,6.66801 l 0,121.7308 c 0,6.101 0.64,6.668 6.67,6.668 l 23.73,0 c 5.07,0 4.44,0.199 7.5,-3.633 l 61.77,-79.0002 0,75.9652"
         inkscape:connector-curvature="0"
         id="path28"
         style="fill:#65007e;fill-opacity:1;fill-rule:nonzero;stroke:none" /><path
         d="m 2577.07,11.5352 c 0,-6.10161 -0.57,-6.66801 -6.67,-6.66801 l -21.7,0 c -6.03,0 -6.66,0.5664 -6.66,6.66801 l 0,121.7308 c 0,6.101 0.63,6.668 6.66,6.668 l 21.7,0 c 6.1,0 6.67,-0.567 6.67,-6.668 l 0,-121.7308"
         inkscape:connector-curvature="0"
         id="path30"
         style="fill:#65007e;fill-opacity:1;fill-rule:nonzero;stroke:none" /><path
         d="m 2893.97,106.133 c 0,-4.867 -1.24,-7.0978 -3.84,-6.8986 -0.83,0 -1.63,0.4336 -2.63,1.1996 -9.54,6.3 -14.6,8.132 -23.1,8.132 -22.1,0 -37.1,-15.1988 -37.1,-37.1012 0,-21.6328 15.24,-36.2304 37.7,-36.2304 9.1,0 16.6,2.6328 23.5,8.3008 0.8,0.5976 1.63,1.0312 2.43,1.0312 2.4,0 3.04,-1.6328 3.04,-6.8984 l 0,-24.336 c 0,-4.23044 -0.2,-4.832 -1.64,-5.832 -0.6,-0.43359 -1,-0.63281 -2,-0.83203 C 2875.93,2 2871.5,1.19922 2862.96,1.19922 c -40.69,0 -72.29,30.80078 -72.29,70.46878 0,39.531 31.76,71.133 71.66,71.133 8.97,0 19.67,-2.035 28.6,-5.668 2.84,-1.031 3.04,-1.832 3.04,-6.735 l 0,-24.265"
         inkscape:connector-curvature="0"
         id="path32"
         style="fill:#65007e;fill-opacity:1;fill-rule:nonzero;stroke:none" /><path
         d="m 3189.83,111.398 c -2.03,-3.863 -2.83,-4.863 -4.86,-4.664 -1.24,0 0.6,-0.8 -10.74,5.465 -2.43,1.235 -6.1,1.801 -10.73,1.801 -8.3,0 -15,-5.035 -15,-11.535 0,-4.2306 3.04,-7.6642 9.13,-10.5002 1.8,-0.832 3.24,-1.2304 15.17,-4.8632 23.5,-6.9024 33.24,-18.0352 33.24,-37.5 0,-30.3672 -19.44,-48.20316 -52.67,-48.20316 -14.57,0 -32.83,5.46875 -43.77,12.96876 -1.2,1 -2.2,2.4336 -2,3.4336 0,0.832 0.8,2.4336 1.8,4.4648 l 8.5,16.0352 c 2.03,3.8008 2.64,4.4336 4.87,4.4336 1.23,0 0.43,0.5664 8.93,-5.4688 5.47,-3.6328 13.57,-6.0664 20.87,-6.0664 10.13,0 16.8,5.2344 16.8,13.1328 0,7.3008 -4.67,10.7344 -21.07,15.6016 -15.4,4.4648 -21.26,7.1016 -26.33,11.3672 -6.67,5.8672 -10.14,14.5664 -10.14,26.3008 0,27.1644 18.63,45.5974 45.97,45.5974 12.17,0 30.2,-4.265 39.1,-9.097 1.43,-0.836 2.23,-2.235 2.23,-3.704 0,-0.765 -0.4,-1.796 -1.59,-4.23 l -7.71,-14.77"
         inkscape:connector-curvature="0"
         id="path34"
         style="fill:#65007e;fill-opacity:1;fill-rule:nonzero;stroke:none" /><path
         d="m 72,1150 -27.6328,0 C 3.60156,1150 0,1146.37 0,1105.6 L 0,319.801 c 0,-40.735 3.60156,-44.367 44.3672,-44.367 l 27.6328,0 c 40.766,0 44.367,3.632 44.367,44.367 l 0,785.799 c 0,40.77 -3.601,44.4 -44.367,44.4"
         inkscape:connector-curvature="0"
         id="path36"
         style="fill:#65007e;fill-opacity:1;fill-rule:nonzero;stroke:none" /><path
         d="m 356.266,990.398 c 0,42.002 -33.633,75.602 -75.598,75.602 -43.203,0 -76.77,-33.6 -76.77,-75.602 0,-35.898 25.5,-66.464 58.403,-74.566 l 0,-135.398 c -36.903,-0.266 -40.434,-4.969 -40.434,-44.368 l 0,-416.265 c 0,-40.766 3.633,-44.367 44.434,-44.367 l 27.566,0 c 40.801,0 44.367,3.601 44.367,44.367 l 0,416.265 c 0,39.399 -3.468,44.102 -40.433,44.368 l 0,135.566 c 33.301,8.367 58.465,38.734 58.465,74.398"
         inkscape:connector-curvature="0"
         id="path38"
         style="fill:#65007e;fill-opacity:1;fill-rule:nonzero;stroke:none" /><path
         d="m 654.898,780.465 -46.73,0 0,140.336 c 0,40.832 -3.602,44.465 -44.402,44.465 l -27.598,0 c -40.801,0 -44.402,-3.633 -44.402,-44.465 l 0,-140.336 -6,0 c -39.567,0 -43.2,-3.567 -43.2,-44.363 l 0,-20.403 c 0,-40.801 3.633,-44.367 43.2,-44.367 l 6,0 0,-351.5 c 0,-40.766 3.601,-44.398 44.402,-44.398 l 27.598,0 c 40.8,0 44.402,3.632 44.402,44.398 l 0,351.5 46.73,0 c 40.836,0 44.434,3.566 44.434,44.367 l 0,20.403 c 0,40.796 -3.598,44.363 -44.434,44.363"
         inkscape:connector-curvature="0"
         id="path40"
         style="fill:#65007e;fill-opacity:1;fill-rule:nonzero;stroke:none" /><path
         d="m 981.168,780.465 -46.734,0 0,140.336 c 0,40.832 -3.602,44.465 -44.399,44.465 l -27.601,0 c -40.801,0 -44.368,-3.633 -44.368,-44.465 l 0,-140.336 -6.031,0 c -39.57,0 -43.203,-3.567 -43.203,-44.363 l 0,-20.403 c 0,-40.801 3.633,-44.367 43.203,-44.367 l 6.031,0 0,-351.5 c 0,-40.766 3.567,-44.398 44.368,-44.398 l 27.601,0 c 40.797,0 44.399,3.632 44.399,44.398 l 0,351.5 46.734,0 c 40.832,0 44.432,3.566 44.432,44.367 l 0,20.403 c 0,40.796 -3.6,44.363 -44.432,44.363"
         inkscape:connector-curvature="0"
         id="path42"
         style="fill:#65007e;fill-opacity:1;fill-rule:nonzero;stroke:none" /><path
         d="m 1169.5,1150 -27.57,0 c -40.8,0 -44.36,-3.63 -44.36,-44.4 l 0,-785.799 c 0,-40.735 3.56,-44.367 44.36,-44.367 l 27.57,0 c 40.83,0 44.4,3.632 44.4,44.367 l 0,785.799 c 0,40.77 -3.57,44.4 -44.4,44.4"
         inkscape:connector-curvature="0"
         id="path44"
         style="fill:#65007e;fill-opacity:1;fill-rule:nonzero;stroke:none" /><path
         d="m 1766.9,530.934 c 0,159.566 -92.33,262.734 -237.5,262.734 -149.97,0 -245.94,-104.367 -245.94,-269.902 0,-157.133 100.77,-263.899 248.34,-263.899 75.57,0 142.77,27.567 190.74,77.899 24,26.433 38.39,48.035 38.39,60.035 0,13.199 -4.83,18 -28.83,31.199 l -21.53,11.965 c -15.67,9.637 -22.8,12 -28.84,12 -10.77,0 -18,-4.766 -25.16,-16.766 -30.03,-48 -70.8,-72 -120,-72 -74.37,0 -124.77,52.836 -130.74,135.567 l 316.71,0 c 35.96,0 44.36,6 44.36,31.168 z m -353.86,63.601 c 14.36,57.598 59.96,93.567 116.36,93.567 59.93,0 101.97,-33.567 117.56,-93.567 l -233.92,0"
         inkscape:connector-curvature="0"
         id="path46"
         style="fill:#65007e;fill-opacity:1;fill-rule:nonzero;stroke:none" /><path
         d="m 2197.54,706.133 c 44.39,39.566 64.86,86.367 64.86,142.734 0,74.399 -36.03,147.567 -91.23,185.903 -41.97,28.83 -95.97,40.83 -191.97,40.83 l -75.53,0 c -40.8,0 -44.37,-3.64 -44.37,-44.37 l 0,-711.429 c 0,-40.735 3.57,-44.367 44.37,-44.367 l 139.13,0 c 108,0 158.4,14.433 211.13,57.566 51.61,43.234 80.4,104.367 80.4,172.766 0,93.601 -52.76,170.336 -136.79,200.367 z M 1980.4,964 l 42.03,0 c 81.57,0 125.97,-40.734 125.97,-115.133 0,-76.765 -44.4,-117.566 -130.77,-117.566 l -37.23,0 0,232.699 z m 74.4,-574.602 -74.4,0 0,241.137 61.2,0 c 116.37,0 173.97,-40.769 173.97,-123.57 0,-74.363 -57.6,-117.567 -160.77,-117.567"
         inkscape:connector-curvature="0"
         id="path48"
         style="fill:#65007e;fill-opacity:1;fill-rule:nonzero;stroke:none" /><path
         d="m 2538.27,990.398 c 0,42.002 -33.57,75.602 -75.57,75.602 -43.2,0 -76.8,-33.6 -76.8,-75.602 0,-35.898 25.5,-66.464 58.43,-74.566 l 0,-135.398 c -36.93,-0.266 -40.4,-4.969 -40.4,-44.368 l 0,-416.265 c 0,-40.766 3.61,-44.367 44.34,-44.367 l 27.63,0 c 40.77,0 44.37,3.601 44.37,44.367 l 0,416.265 c 0,39.399 -3.5,44.102 -40.44,44.368 l 0,135.566 c 33.27,8.367 58.44,38.734 58.44,74.398"
         inkscape:connector-curvature="0"
         id="path50"
         style="fill:#65007e;fill-opacity:1;fill-rule:nonzero;stroke:none" /><path
         d="m 2818.9,780.465 -46.73,0 0,140.336 c 0,40.832 -3.6,44.465 -44.37,44.465 l -27.63,0 c -40.77,0 -44.4,-3.633 -44.4,-44.465 l 0,-140.336 -6,0 c -39.57,0 -43.14,-3.567 -43.14,-44.363 l 0,-20.403 c 0,-40.801 3.57,-44.367 43.14,-44.367 l 6,0 0,-351.5 c 0,-40.766 3.63,-44.398 44.4,-44.398 l 27.63,0 c 40.77,0 44.37,3.632 44.37,44.398 l 0,351.5 46.73,0 c 40.8,0 44.43,3.566 44.43,44.367 l 0,20.403 c 0,40.796 -3.63,44.363 -44.43,44.363"
         inkscape:connector-curvature="0"
         id="path52"
         style="fill:#65007e;fill-opacity:1;fill-rule:nonzero;stroke:none" /><path
         d="m 3084.04,595.734 c -55.14,25.2 -67.17,36.032 -67.17,57.598 0,20.402 16.8,35.969 38.4,35.969 17.96,0 26.36,-4.766 43.2,-26.403 5.96,-8.363 13.16,-12 21.57,-12 6,0 8.39,1.204 27.59,12 l 21.57,10.836 c 25.2,13.164 28.8,17.965 28.8,31.164 0,39.602 -74.33,88.77 -135.57,88.77 -88.76,0 -155.93,-64.77 -155.93,-152.336 0,-62.367 24,-93.598 98.37,-130.797 109.17,-53.933 116.36,-59.969 116.36,-92.367 0,-32.367 -23.96,-53.969 -60,-53.969 -22.73,0 -44.36,9.602 -55.16,26.367 -22.8,31.235 -25.2,33.633 -37.17,32.434 -4.8,0 -13.2,-3.602 -26.4,-9.602 l -22.83,-10.796 c -26.37,-12.036 -31.13,-16.801 -31.13,-30 0,-8.403 4.76,-20.403 15.56,-34.801 33.6,-49.168 92.4,-77.934 157.13,-77.934 99.6,0 178.77,75.531 178.77,170.332 0,74.336 -32.37,107.969 -155.96,165.535"
         inkscape:connector-curvature="0"
         id="path54"
         style="fill:#65007e;fill-opacity:1;fill-rule:nonzero;stroke:none" /><path
         d="m 3201.04,838.301 c 1.26,0 2.03,0.133 2.36,0.465 0.33,0.336 0.5,1.132 0.5,2.367 l 0,6.902 c 0,1.266 -0.17,2.031 -0.5,2.332 -0.33,0.332 -1.1,0.5 -2.36,0.5 l -33.64,0 c -1.23,0 -2.07,-0.168 -2.4,-0.5 -0.3,-0.301 -0.43,-1.066 -0.43,-2.332 l 0,-6.902 c 0,-1.235 0.13,-2.031 0.43,-2.367 0.33,-0.332 1.17,-0.465 2.4,-0.465 l 9.27,0 0,-41.836 c 0,-1.266 0.13,-2.067 0.46,-2.363 0.34,-0.336 1.14,-0.5 2.37,-0.5 l 9.2,0 c 1.27,0 2.07,0.164 2.37,0.5 0.33,0.296 0.5,1.097 0.5,2.363 l 0,41.836 9.47,0 z m 32.09,10.367 c -0.43,1.133 -0.8,1.73 -1.06,1.934 -0.27,0.199 -0.97,0.265 -2.1,0.265 l -9.77,0 c -1.2,0 -2,-0.133 -2.3,-0.367 -0.27,-0.266 -0.5,-1 -0.73,-2.199 l -8.77,-51.535 c -0.13,-0.766 -0.2,-1.266 -0.2,-1.5 0,-0.633 0.2,-1.067 0.6,-1.301 0.43,-0.231 1.17,-0.363 2.27,-0.363 l 8.97,0 c 1.19,0 1.96,0.132 2.26,0.433 0.3,0.231 0.57,0.965 0.77,2.164 l 4.47,30.403 12.33,-30.836 c 0.43,-1.067 0.8,-1.7 1.06,-1.868 0.27,-0.199 1,-0.296 2.14,-0.296 l 1.3,0 c 1.13,0 1.86,0.097 2.13,0.296 0.27,0.168 0.6,0.801 1.04,1.801 l 13,30.903 3.86,-30.368 c 0.17,-1.199 0.4,-1.968 0.67,-2.199 0.33,-0.301 1.1,-0.433 2.36,-0.433 l 9.07,0 c 1.07,0 1.83,0.132 2.23,0.363 0.4,0.234 0.64,0.668 0.64,1.301 0,0.199 -0.07,0.699 -0.17,1.433 l -7.83,51.567 c -0.2,1.199 -0.44,1.933 -0.77,2.199 -0.3,0.269 -1.03,0.402 -2.27,0.402 l -9.83,0 c -1.1,0 -1.87,-0.066 -2.13,-0.265 -0.24,-0.204 -0.6,-0.801 -1.07,-1.868 l -11.4,-28.402 -10.77,28.336"
         inkscape:connector-curvature="0"
         id="path56"
         style="fill:#65007e;fill-opacity:1;fill-rule:nonzero;stroke:none" /></g></g></svg>