<?xml version="1.0" encoding="UTF-8" standalone="no"?>
<svg
   xmlns:dc="http://purl.org/dc/elements/1.1/"
   xmlns:cc="http://creativecommons.org/ns#"
   xmlns:rdf="http://www.w3.org/1999/02/22-rdf-syntax-ns#"
   xmlns:svg="http://www.w3.org/2000/svg"
   xmlns="http://www.w3.org/2000/svg"
   viewBox="0 0 724.58752 87.474998"
   height="87.474998"
   width="724.58752"
   xml:space="preserve"
   version="1.1"
   id="svg2"><metadata
     id="metadata8"><rdf:RDF><cc:Work
         rdf:about=""><dc:format>image/svg+xml</dc:format><dc:type
           rdf:resource="http://purl.org/dc/dcmitype/StillImage" /></cc:Work></rdf:RDF></metadata><defs
     id="defs6"><clipPath
       id="clipPath18"
       clipPathUnits="userSpaceOnUse"><path
         id="path20"
         d="M 0,699.766 0,0 l 5796.7,0 0,699.766 -5796.7,0 z" /></clipPath></defs><g
     transform="matrix(1.25,0,0,-1.25,0,87.475)"
     id="g10"><g
       transform="scale(0.1,0.1)"
       id="g12"><g
         id="g14"><g
           clip-path="url(#clipPath18)"
           id="g16"><path
             id="path22"
             style="fill:#6ec0be;fill-opacity:1;fill-rule:nonzero;stroke:none"
             d="m 2923.53,0 c -2.16,0 -4.33,0.0195312 -6.52,0.0585938 C 2776.64,2.36328 2705.14,92.1484 2702.16,95.9688 c -10.18,13.0622 -7.83,31.9222 5.24,42.0972 13.03,10.157 31.81,7.852 42.01,-5.128 2.6,-3.239 58.23,-71.063 168.59,-72.8989 64.9,-1.0547 118.79,17.3242 147.93,50.4099 21.65,24.617 29.78,56.758 24.16,95.528 -10.67,73.671 -98.07,103.75 -168.28,127.921 l -8.06,2.762 c -15.66,5.422 -23.97,22.512 -18.55,38.164 5.42,15.664 22.5,23.981 38.16,18.555 l 7.98,-2.754 c 76.54,-26.344 192.21,-66.152 208.12,-176.035 8.15,-56.184 -5.15,-105.899 -38.49,-143.7697 C 3070.67,25.0391 3004.29,0 2923.53,0" /><path
             id="path24"
             style="fill:#6ec0be;fill-opacity:1;fill-rule:nonzero;stroke:none"
             d="m 5111.59,0.910156 c -10.21,0 -20.17,5.214844 -25.78,14.617144 L 4935.85,266.621 c -4.32,7.227 -5.4,15.945 -2.97,24.004 2.42,8.066 8.13,14.746 15.71,18.398 1.15,0.555 120.52,59.922 120.52,164.606 0,132.059 -96.29,159.777 -177.05,159.777 l -179.51,0 c -16.56,0 -30,13.43 -30,30.004 0,16.567 13.44,30 30,30 l 179.51,0 c 148.44,0 237.05,-82.16 237.05,-219.781 0,-105.797 -81.5,-173.258 -126.19,-202.301 L 5137.31,46.2891 c 8.5,-14.2188 3.86,-32.6368 -10.37,-41.13285 -4.82,-2.87891 -10.11,-4.246094 -15.35,-4.246094" /><path
             id="path26"
             style="fill:#6ec0be;fill-opacity:1;fill-rule:nonzero;stroke:none"
             d="m 227.727,335.02 c -3.289,0 -6.633,0.546 -9.915,1.679 -6.332,2.227 -13.054,4.473 -20.042,6.813 -70.29,23.515 -176.5122,59.058 -183.6528,163.355 -3.6094,52.703 11.7226,98.727 44.3476,133.09 37.6875,39.691 96.9332,60.938 166.5702,59.766 126.781,-2.082 191.516,-83.371 194.211,-86.821 10.18,-13.078 7.832,-31.925 -5.238,-42.105 -13.031,-10.149 -31.797,-7.852 -42.004,5.109 -2.332,2.914 -51.188,62.235 -147.961,63.824 -52.461,0.782 -96.078,-13.714 -122.066,-41.085 -21.0434,-22.168 -30.4692,-51.668 -27.9965,-87.68 4.0664,-59.41 67.0895,-85.211 142.8205,-110.555 7.265,-2.426 14.254,-4.765 20.836,-7.07 15.633,-5.473 23.875,-22.586 18.402,-38.227 -4.324,-12.359 -15.922,-20.093 -28.312,-20.093" /><path
             id="path28"
             style="fill:#6ec0be;fill-opacity:1;fill-rule:nonzero;stroke:none"
             d="m 1081.82,0.910156 c -9.52,0 -18.87,4.511724 -24.69,12.917944 L 798.496,387.336 c -9.434,13.617 -6.035,32.309 7.582,41.738 13.617,9.434 32.313,6.039 41.742,-7.578 L 1106.45,47.9883 c 9.44,-13.6328 6.04,-32.3047 -7.58,-41.75002 -5.21,-3.60156 -11.16,-5.328124 -17.05,-5.328124" /><path
             id="path30"
             style="fill:#6ec0be;fill-opacity:1;fill-rule:nonzero;stroke:none"
             d="m 656.988,0.910156 c -16.566,0 -30,13.425744 -30,29.996044 l 0,224.0428 c 0,16.574 13.434,30 30,30 16.567,0 30,-13.426 30,-30 l 0,-224.0428 c 0,-16.5703 -13.433,-29.996044 -30,-29.996044" /><path
             id="path32"
             style="fill:#6ec0be;fill-opacity:1;fill-rule:nonzero;stroke:none"
             d="m 1314.92,446.633 c -16.57,0 -30,13.437 -30,30 l 0,186.777 c 0,16.567 13.43,30 30,30 16.56,0 30,-13.433 30,-30 l 0,-186.777 c 0,-16.563 -13.44,-30 -30,-30" /><path
             id="path34"
             style="fill:#6ec0be;fill-opacity:1;fill-rule:nonzero;stroke:none"
             d="m 1600.12,0.910156 c -16.57,0 -30,13.425744 -30,29.996044 l 0,632.5038 c 0,16.567 13.43,30 30,30 16.57,0 30,-13.433 30,-30 l 0,-632.5038 c 0,-16.5703 -13.43,-29.996044 -30,-29.996044" /><path
             id="path36"
             style="fill:#6ec0be;fill-opacity:1;fill-rule:nonzero;stroke:none"
             d="m 2530.4,0.910156 -364.61,0 c -16.57,0 -30,13.425744 -30,29.996044 0,16.5743 13.43,30.004 30,30.004 l 364.61,0 c 16.57,0 30.01,-13.4297 30.01,-30.004 0,-16.5703 -13.44,-29.996044 -30.01,-29.996044" /><path
             id="path38"
             style="fill:#6ec0be;fill-opacity:1;fill-rule:nonzero;stroke:none"
             d="m 3715.75,693.41 c -16.56,0 -30,-13.433 -30,-30 l 0,-288.828 -168.48,0 c -16.57,0 -29.99,-13.434 -29.99,-30.004 0,-16.57 13.42,-30 29.99,-30 l 168.48,0 0,-283.6718 c 0,-16.5703 13.44,-29.996044 30,-29.996044 16.57,0 30,13.425744 30,29.996044 l 0,632.5038 c 0,16.567 -13.43,30 -30,30" /><path
             id="path40"
             style="fill:#6ec0be;fill-opacity:1;fill-rule:nonzero;stroke:none"
             d="m 4390.11,253.309 -309.14,0 166.73,398.523 c 6.41,15.285 -0.8,32.856 -16.09,39.25 -15.27,6.395 -32.85,-0.812 -39.26,-16.098 L 3927.7,42.4922 c -6.38,-15.2852 0.83,-32.86329 16.1,-39.25782 3.79,-1.58594 7.71,-2.335942 11.57,-2.335942 11.73,0 22.88,6.933592 27.69,18.425762 l 72.8,173.9878 334.25,0 c 16.57,0 30,13.438 30,30 0,16.563 -13.43,29.997 -30,29.997" /><path
             id="path42"
             style="fill:#6ec0be;fill-opacity:1;fill-rule:nonzero;stroke:none"
             d="m 5766.7,0.910156 -388.15,0 c -16.57,0 -30,13.425744 -30,29.996044 l 0,316.2538 c 0,16.559 13.43,29.996 30,29.996 16.58,0 30,-13.437 30,-29.996 l 0,-286.2498 358.15,0 c 16.57,0 30,-13.4297 30,-30.004 0,-16.5703 -13.43,-29.996044 -30,-29.996044" /><path
             id="path44"
             style="fill:#f2581a;fill-opacity:1;fill-rule:nonzero;stroke:none"
             d="m 227.699,0 c -2.164,0 -4.332,0.0195312 -6.515,0.0585938 C 80.8047,2.36328 9.30469,92.1484 6.32812,95.9688 -3.84766,109.031 -1.50391,127.891 11.5664,138.066 c 5.4766,4.27 11.9727,6.336 18.4141,6.336 8.8906,0 17.6875,-3.937 23.6015,-11.464 2.5938,-3.239 58.23,-71.063 168.586,-72.8989 1.766,-0.0274 3.527,-0.043 5.273,-0.043 62.504,0 114.313,18.2695 142.657,50.4529 21.648,24.617 29.781,56.758 24.16,95.528 -10.668,73.671 -98.063,103.75 -168.281,127.921 l -8.055,2.762 c -0.145,0.051 -0.285,0.102 -0.426,0.152 0.106,-0.039 0.211,-0.074 0.316,-0.113 3.282,-1.133 6.626,-1.679 9.915,-1.679 12.39,0 23.988,7.734 28.312,20.093 5.473,15.641 -2.769,32.754 -18.402,38.227 -0.102,0.035 -0.203,0.07 -0.301,0.105 0.062,-0.023 0.129,-0.043 0.191,-0.066 l 7.977,-2.754 C 322.047,364.281 437.723,324.473 453.637,214.59 461.781,158.406 448.473,108.691 415.137,70.8203 374.848,25.0391 308.461,0 227.699,0" /><path
             id="path46"
             style="fill:#7d512c;fill-opacity:1;fill-rule:nonzero;stroke:none"
             d="m 227.727,335.02 c -3.289,0 -6.633,0.546 -9.915,1.679 -0.105,0.039 -0.21,0.074 -0.316,0.113 -15.383,5.579 -23.492,22.5 -18.125,38.012 4.289,12.414 15.906,20.215 28.34,20.215 3.191,0 6.434,-0.516 9.625,-1.594 0.098,-0.035 0.199,-0.07 0.301,-0.105 15.633,-5.473 23.875,-22.586 18.402,-38.227 -4.324,-12.359 -15.922,-20.093 -28.312,-20.093" /><path
             id="path48"
             style="fill:#f2581a;fill-opacity:1;fill-rule:nonzero;stroke:none"
             d="m 2913.32,336.812 c -6.23,2.192 -12.85,4.399 -19.72,6.7 -70.29,23.515 -176.51,59.058 -183.65,163.355 -3.61,52.703 11.72,98.727 44.35,133.09 36.69,38.652 93.76,59.813 161.11,59.813 1.82,0 3.63,-0.016 5.46,-0.047 126.78,-2.082 191.51,-83.371 194.21,-86.821 10.17,-13.078 7.83,-31.925 -5.25,-42.105 -5.47,-4.266 -11.96,-6.332 -18.4,-6.332 -8.89,0 -17.68,3.93 -23.6,11.441 -2.33,2.914 -51.18,62.235 -147.96,63.824 -1.34,0.024 -2.68,0.032 -4.01,0.032 -50.68,0 -92.73,-14.446 -118.05,-41.117 -21.05,-22.168 -30.47,-51.668 -28,-87.68 4.07,-59.41 67.09,-85.211 142.82,-110.555 7.15,-2.39 14.04,-4.691 20.53,-6.965 -3.19,1.082 -6.43,1.594 -9.61,1.594 -12.44,0 -24.06,-7.801 -28.35,-20.215 -5.37,-15.512 2.74,-32.429 18.12,-38.012" /><path
             id="path50"
             style="fill:#7d512c;fill-opacity:1;fill-rule:nonzero;stroke:none"
             d="m 2923.55,335.02 c -3.29,0 -6.63,0.546 -9.91,1.679 -0.1,0.039 -0.21,0.074 -0.32,0.113 -15.38,5.583 -23.49,22.5 -18.12,38.012 4.29,12.414 15.91,20.215 28.35,20.215 3.18,0 6.42,-0.512 9.61,-1.594 0.1,-0.035 0.2,-0.07 0.31,-0.105 15.63,-5.473 23.87,-22.586 18.4,-38.227 -4.32,-12.359 -15.92,-20.093 -28.32,-20.093" /><path
             id="path52"
             style="fill:#f2581a;fill-opacity:1;fill-rule:nonzero;stroke:none"
             d="m 1964.74,0.910156 -364.62,0 c -16.57,0 -30,13.425744 -30,29.996044 l 0,0 c 0,-16.5703 13.43,-29.996044 30,-29.996044 16.57,0 30,13.425744 30,29.996044 l 0,30.004 334.62,0 c 16.57,0 30,-13.4297 30,-30.004 0,-16.5703 -13.43,-29.996044 -30,-29.996044" /><path
             id="path54"
             style="fill:#7d512c;fill-opacity:1;fill-rule:nonzero;stroke:none"
             d="m 1600.12,0.910156 c -16.57,0 -30,13.425744 -30,29.996044 0,16.5743 13.43,30.004 30,30.004 l 30,0 0,-30.004 c 0,-16.5703 -13.43,-29.996044 -30,-29.996044" /><path
             id="path56"
             style="fill:#f2581a;fill-opacity:1;fill-rule:nonzero;stroke:none"
             d="m 1314.92,0.910156 c -16.57,0 -30,13.425744 -30,29.996044 l 0,445.7268 c 0,-16.563 13.43,-30 30,-30 16.56,0 30,13.437 30,30 l 0,-445.7268 c 0,-16.5703 -13.44,-29.996044 -30,-29.996044" /><path
             id="path58"
             style="fill:#7d512c;fill-opacity:1;fill-rule:nonzero;stroke:none"
             d="m 1314.92,446.633 c -16.57,0 -30,13.437 -30,30 0,16.566 13.43,30 30,30 16.56,0 30,-13.434 30,-30 0,-16.563 -13.44,-30 -30,-30" /><path
             id="path60"
             style="fill:#f2581a;fill-opacity:1;fill-rule:nonzero;stroke:none"
             d="m 2135.79,30.9062 0,632.5038 c 0,16.567 13.43,30 30,30 16.56,0 30,-13.433 30,-30 l 0,-602.4998 -30,0 c -16.57,0 -30,-13.4297 -30,-30.004" /><path
             id="path62"
             style="fill:#7d512c;fill-opacity:1;fill-rule:nonzero;stroke:none"
             d="m 2165.79,0.910156 0,0 c -16.57,0 -30,13.425744 -30,29.996044 l 0,0 c 0,16.5743 13.43,30.004 30,30.004 l 30,0 0,-30.004 c 0,-16.5703 -13.44,-29.996044 -30,-29.996044" /><path
             id="path64"
             style="fill:#f2581a;fill-opacity:1;fill-rule:nonzero;stroke:none"
             d="m 3318.8,0.910156 c -16.57,0 -30,13.425744 -30,29.996044 l 0,632.5038 c 0,16.567 13.43,30 30,30 16.56,0 30,-13.433 30,-30 l 0,-288.828 168.47,0 c -16.57,0 -29.99,-13.434 -29.99,-30.004 0,-16.57 13.42,-30 29.99,-30 l -168.47,0 0,-283.6718 c 0,-16.5703 -13.44,-29.996044 -30,-29.996044" /><path
             id="path66"
             style="fill:#7d512c;fill-opacity:1;fill-rule:nonzero;stroke:none"
             d="m 3517.27,314.578 0,0 c -16.57,0 -29.99,13.43 -29.99,30 0,16.57 13.42,30.004 29.99,30.004 l 0,0 c 16.57,0 30.01,-13.434 30.01,-30.004 0,-16.57 -13.44,-30 -30.01,-30" /><path
             id="path68"
             style="fill:#f2581a;fill-opacity:1;fill-rule:nonzero;stroke:none"
             d="m 4484.68,0.898438 c -11.74,0 -22.88,6.933592 -27.7,18.437462 l -72.79,173.9761 5.92,0 c 16.57,0 30,13.438 30,30 0,16.563 -13.43,29.997 -30,29.997 l -31.02,0 -139.06,332.375 27.67,66.148 c 3.14,7.473 3.02,15.496 0.28,22.492 L 4512.33,42.4805 c 6.41,-15.2735 -0.81,-32.85159 -16.09,-39.24612 -3.78,-1.58594 -7.71,-2.335942 -11.56,-2.335942 M 4198.57,684.375 c 2.73,2.797 6.05,5.105 9.89,6.707 2.61,1.094 5.3,1.789 7.98,2.113 -6.74,-0.824 -13.07,-3.918 -17.87,-8.82" /><path
             id="path70"
             style="fill:#7d512c;fill-opacity:1;fill-rule:nonzero;stroke:none"
             d="m 4390.11,193.312 -5.92,0 -25.1,59.997 31.02,0 c 16.57,0 30,-13.434 30,-29.997 0,-16.562 -13.43,-30 -30,-30 m -170.08,392.372 -27.68,66.148 c -4.78,11.449 -1.94,24.188 6.22,32.543 4.8,4.902 11.13,7.996 17.87,8.82 1.19,0.145 2.39,0.215 3.58,0.215 11.73,0 22.88,-6.922 27.68,-18.426 l 0.28,-0.66 c 2.74,-6.996 2.86,-15.019 -0.28,-22.492 l -27.67,-66.148" /><path
             id="path72"
             style="fill:#f2581a;fill-opacity:1;fill-rule:nonzero;stroke:none"
             d="m 4712.55,0.910156 c -16.56,0 -30,13.425744 -30,29.996044 l 0,632.5038 c 0,-16.574 13.44,-30.004 30,-30.004 l 30,0 0,-321.414 211.6,0 c -3.4,-1.898 -5.41,-2.898 -5.56,-2.969 -7.58,-3.652 -13.29,-10.332 -15.71,-18.398 -2.43,-8.059 -1.35,-16.777 2.97,-24.004 l 8.74,-14.629 -202.04,0 0,-221.0858 c 0,-16.5703 -13.43,-29.996044 -30,-29.996044" /><path
             id="path74"
             style="fill:#7d512c;fill-opacity:1;fill-rule:nonzero;stroke:none"
             d="m 4961.61,251.992 -17.02,0 -8.74,14.629 c -4.32,7.227 -5.4,15.945 -2.97,24.004 2.42,8.066 8.13,14.746 15.71,18.398 0.15,0.071 2.16,1.071 5.56,2.969 l 7.46,0 c 16.56,0 30,-13.43 30,-30 0,-16.562 -13.44,-30 -30,-30 m -219.06,381.414 -30,0 c -16.56,0 -30,13.43 -30,30.004 0,16.567 13.44,30 30,30 16.57,0 30,-13.433 30,-30 l 0,-30.004" /><path
             id="path76"
             style="fill:#f2581a;fill-opacity:1;fill-rule:nonzero;stroke:none"
             d="m 5710.83,317.16 -302.28,0 0,30 c 0,16.559 -13.42,29.996 -30,29.996 -16.57,0 -30,-13.437 -30,-29.996 l 0,316.25 c 0,16.567 13.43,30 30,30 l 388.15,0 c 16.57,0 30,-13.433 30,-30 0,-16.574 -13.43,-30.004 -30,-30.004 l -358.15,0 0,-256.25 302.28,0 c 16.57,0 30,-13.437 30,-29.996 0,-16.574 -13.43,-30 -30,-30" /><path
             id="path78"
             style="fill:#7d512c;fill-opacity:1;fill-rule:nonzero;stroke:none"
             d="m 5408.55,317.16 -30,0 c -16.57,0 -30,13.426 -30,30 l 0,0 c 0,16.559 13.43,29.996 30,29.996 16.58,0 30,-13.437 30,-29.996 l 0,-30" /><path
             id="path80"
             style="fill:#f2581a;fill-opacity:1;fill-rule:nonzero;stroke:none"
             d="m 686.988,242.695 0,12.254 c 0,16.574 -13.433,30 -30,30 -16.566,0 -30,-13.426 -30,-30 l 0,408.461 c 0,16.567 13.434,30 30,30 16.567,0 30,-13.433 30,-30 l 0,-335.012 349.072,356.012 c 5.87,5.992 13.65,8.996 21.42,8.996 7.58,0 15.16,-2.851 21,-8.582 11.83,-11.597 12.02,-30.586 0.42,-42.418 l -225.088,-229.562 -5.992,8.652 c -5.824,8.406 -15.175,12.918 -24.687,12.918 -5.891,0 -11.844,-1.734 -17.055,-5.34 -13.617,-9.429 -17.016,-28.121 -7.582,-41.738 L 811.039,369.219 686.988,242.695" /><path
             id="path82"
             style="fill:#7d512c;fill-opacity:1;fill-rule:nonzero;stroke:none"
             d="m 811.039,369.219 -12.543,18.117 c -9.434,13.617 -6.035,32.309 7.582,41.738 5.211,3.606 11.164,5.34 17.055,5.34 9.512,0 18.863,-4.512 24.687,-12.918 l 5.992,-8.652 -42.773,-43.625" /><path
             id="path84"
             style="fill:#7d512c;fill-opacity:1;fill-rule:nonzero;stroke:none"
             d="m 656.98,224.953 c -3.816,0 -7.664,0.731 -11.335,2.227 -11.286,4.605 -18.657,15.586 -18.657,27.769 l 0,0 c 0,16.574 13.434,30 30,30 16.567,0 30,-13.426 30,-30 l 0,-12.254 -8.582,-8.75 c -5.754,-5.871 -13.519,-8.992 -21.426,-8.992" /></g></g></g></g></svg>